<svg width="44" height="40" viewBox="0 0 44 40" fill="none" xmlns="http://www.w3.org/2000/svg">
<path d="M10.4001 0.879883L34.2001 24.6799L38.4401 20.4399L41.2601 23.2599L36.3201 28.1999L42.6801 34.5599C43.4601 35.3399 43.4601 36.5999 42.6801 37.3799L41.2601 38.7999C40.4801 39.5799 39.2201 39.5799 38.4401 38.7999L32.0001 32.4599L27.1201 37.3999L24.3001 34.5799L28.5401 30.3399L4.74011 6.53988V0.879883H10.4001ZM29.7801 15.9999L39.2601 6.51988V0.879883H33.6001L24.1201 10.3599L29.7801 15.9999ZM19.8801 25.9999L14.2201 20.2599L9.80011 24.6799L5.56011 20.4399L2.74011 23.2599L7.68011 28.1999L1.32011 34.5799C0.540107 35.3599 0.540107 36.6199 1.32011 37.3999L2.74011 38.8199C3.52011 39.5999 4.78011 39.5999 5.56011 38.8199L12.0001 32.4599L16.8801 37.3999L19.7001 34.5799L15.4601 30.3399L19.8801 25.9999Z" fill="white"/>
</svg>
