<svg width="20" height="20" viewBox="0 0 20 20" fill="none" xmlns="http://www.w3.org/2000/svg">
<path d="M11.8253 11.825L5.00033 15L8.17533 8.175L15.0003 5M10.0003 1.66667C8.90598 1.66667 7.82234 1.88221 6.8113 2.301C5.80025 2.71979 4.88159 3.33362 4.10777 4.10744C2.54497 5.67025 1.66699 7.78986 1.66699 10C1.66699 12.2101 2.54497 14.3298 4.10777 15.8926C4.88159 16.6664 5.80025 17.2802 6.8113 17.699C7.82234 18.1178 8.90598 18.3333 10.0003 18.3333C12.2105 18.3333 14.3301 17.4554 15.8929 15.8926C17.4557 14.3298 18.3337 12.2101 18.3337 10C18.3337 8.90565 18.1181 7.82202 17.6993 6.81097C17.2805 5.79992 16.6667 4.88126 15.8929 4.10744C15.1191 3.33362 14.2004 2.71979 13.1894 2.301C12.1783 1.88221 11.0947 1.66667 10.0003 1.66667ZM10.0003 9.08333C9.75721 9.08333 9.52405 9.17991 9.35214 9.35182C9.18024 9.52373 9.08366 9.75688 9.08366 10C9.08366 10.2431 9.18024 10.4763 9.35214 10.6482C9.52405 10.8201 9.75721 10.9167 10.0003 10.9167C10.2434 10.9167 10.4766 10.8201 10.6485 10.6482C10.8204 10.4763 10.917 10.2431 10.917 10C10.917 9.75688 10.8204 9.52373 10.6485 9.35182C10.4766 9.17991 10.2434 9.08333 10.0003 9.08333Z" fill="white"/>
</svg>
