<svg width="41" height="40" viewBox="0 0 41 40" fill="none" xmlns="http://www.w3.org/2000/svg">
<path d="M24.88 24.38L8.5 32L16.12 15.62L32.5 8M20.5 0C17.8736 0 15.2728 0.517315 12.8463 1.52241C10.4198 2.5275 8.21504 4.00069 6.35786 5.85786C2.60714 9.60859 0.5 14.6957 0.5 20C0.5 25.3043 2.60714 30.3914 6.35786 34.1421C8.21504 35.9993 10.4198 37.4725 12.8463 38.4776C15.2728 39.4827 17.8736 40 20.5 40C25.8043 40 30.8914 37.8929 34.6421 34.1421C38.3929 30.3914 40.5 25.3043 40.5 20C40.5 17.3736 39.9827 14.7728 38.9776 12.3463C37.9725 9.91982 36.4993 7.71504 34.6421 5.85786C32.785 4.00069 30.5802 2.5275 28.1537 1.52241C25.7272 0.517315 23.1264 0 20.5 0ZM20.5 17.8C19.9165 17.8 19.3569 18.0318 18.9444 18.4444C18.5318 18.8569 18.3 19.4165 18.3 20C18.3 20.5835 18.5318 21.1431 18.9444 21.5556C19.3569 21.9682 19.9165 22.2 20.5 22.2C21.0835 22.2 21.6431 21.9682 22.0556 21.5556C22.4682 21.1431 22.7 20.5835 22.7 20C22.7 19.4165 22.4682 18.8569 22.0556 18.4444C21.6431 18.0318 21.0835 17.8 20.5 17.8Z" fill="white"/>
</svg>
