<svg width="54" height="54" viewBox="0 0 54 54" fill="none" xmlns="http://www.w3.org/2000/svg">
<path d="M27 0.333374C12.2534 0.333374 0.333374 12.2534 0.333374 27C0.333374 41.7467 12.2534 53.6667 27 53.6667C34.0725 53.6667 40.8552 50.8572 45.8562 45.8562C50.8572 40.8552 53.6667 34.0725 53.6667 27C53.6667 12.2534 41.6667 0.333374 27 0.333374ZM13.0267 18.52L15.8534 15.6934L18.68 18.52L21.5067 15.6934L24.3334 18.52L21.5067 21.3467L24.3334 24.1734L21.5067 27L18.68 24.1734L15.8534 27L13.0267 24.1734L15.8534 21.3467L13.0267 18.52ZM13.3734 41.6667C15.5067 36.2267 20.7867 32.3334 27 32.3334C33.2134 32.3334 38.4934 36.2267 40.6267 41.6667H13.3734ZM40.9734 24.1734L38.1467 27L35.32 24.1734L32.4934 27L29.6667 24.1734L32.4934 21.3467L29.6667 18.52L32.4934 15.6934L35.32 18.52L38.1467 15.6934L40.9734 18.52L38.1467 21.3467L40.9734 24.1734Z" fill="#8C8C8C"/>
</svg>
