<svg width="44" height="34" viewBox="0 0 44 34" fill="none" xmlns="http://www.w3.org/2000/svg">
<path d="M33 19.66C34.58 19.66 36.26 19.82 38 20.14V23.14C36.76 22.82 35.08 22.66 33 22.66C29.2 22.66 26.22 23.32 24 24.64V21.26C26.34 20.2 29.34 19.66 33 19.66ZM24 15.92C26.58 14.86 29.58 14.34 33 14.34C34.58 14.34 36.26 14.48 38 14.8V17.8C36.76 17.48 35.08 17.32 33 17.32C29.2 17.32 26.22 18 24 19.3M33 12C29.2 12 26.22 12.64 24 14V10.68C26.46 9.56 29.46 9 33 9C34.58 9 36.26 9.16 38 9.46V12.56C36.52 12.18 34.82 12 33 12ZM40 28V5C37.92 4.34 35.58 4 33 4C28.9 4 25.24 5 22 7V30C25.24 28 28.9 27 33 27C35.38 27 37.72 27.32 40 28ZM33 0C37.7 0 41.38 1 44 3V32.12C44 32.36 43.9 32.6 43.68 32.82C43.46 33 43.22 33.16 43 33.16C42.78 33.16 42.62 33.12 42.5 33.06C39.94 31.68 36.76 31 33 31C28.9 31 25.24 32 22 34C19.32 32 15.66 31 11 31C7.68 31 4.5 31.72 1.5 33.14C1.44 33.16 1.36 33.16 1.26 33.2C1.18 33.22 1.1 33.24 1 33.24C0.78 33.24 0.54 33.16 0.32 33C0.0999999 32.78 0 32.56 0 32.3V3C2.68 1 6.36 0 11 0C15.66 0 19.32 1 22 3C24.68 1 28.34 0 33 0Z" fill="white"/>
</svg>
