<svg width="54" height="54" viewBox="0 0 54 54" fill="none" xmlns="http://www.w3.org/2000/svg">
<path d="M27 0.333252C12.2534 0.333252 0.333374 12.2533 0.333374 26.9999C0.333374 41.7466 12.2534 53.6666 27 53.6666C34.0725 53.6666 40.8552 50.8571 45.8562 45.8561C50.8572 40.8551 53.6667 34.0724 53.6667 26.9999C53.6667 12.2533 41.6667 0.333252 27 0.333252ZM13.0267 18.5199L15.8534 15.6933L18.68 18.5199L21.5067 15.6933L24.3334 18.5199L21.5067 21.3466L24.3334 24.1733L21.5067 26.9999L18.68 24.1733L15.8534 26.9999L13.0267 24.1733L15.8534 21.3466L13.0267 18.5199ZM13.3734 41.6666C15.5067 36.2266 20.7867 32.3333 27 32.3333C33.2134 32.3333 38.4934 36.2266 40.6267 41.6666H13.3734ZM40.9734 24.1733L38.1467 26.9999L35.32 24.1733L32.4934 26.9999L29.6667 24.1733L32.4934 21.3466L29.6667 18.5199L32.4934 15.6933L35.32 18.5199L38.1467 15.6933L40.9734 18.5199L38.1467 21.3466L40.9734 24.1733Z" fill="#8C8C8C"/>
</svg>
