<svg width="20" height="20" viewBox="0 0 20 20" fill="none" xmlns="http://www.w3.org/2000/svg">
<path d="M5.16673 2.03333L15.0834 11.95L16.8501 10.1833L18.0251 11.3583L15.9667 13.4167L18.6167 16.0667C18.9417 16.3917 18.9417 16.9167 18.6167 17.2417L18.0251 17.8333C17.7001 18.1583 17.1751 18.1583 16.8501 17.8333L14.1667 15.1917L12.1334 17.25L10.9584 16.075L12.7251 14.3083L2.8084 4.39167V2.03333H5.16673ZM13.2417 8.33333L17.1917 4.38333V2.03333H14.8334L10.8834 5.98333L13.2417 8.33333ZM9.11673 12.5L6.7584 10.1083L4.91673 11.95L3.15006 10.1833L1.97507 11.3583L4.0334 13.4167L1.3834 16.075C1.0584 16.4 1.0584 16.925 1.3834 17.25L1.97507 17.8417C2.30007 18.1667 2.82507 18.1667 3.15006 17.8417L5.8334 15.1917L7.86673 17.25L9.04173 16.075L7.27506 14.3083L9.11673 12.5Z" fill="white"/>
</svg>
