<svg width="20" height="20" viewBox="0 0 20 20" fill="none" xmlns="http://www.w3.org/2000/svg">
<path d="M14.7916 3.40833L12.6833 5.025L13.4416 7.575L11.2499 6.06667L9.05827 7.575L9.8166 5.025L7.70827 3.40833L10.3666 3.33333L11.2499 0.833334L12.1333 3.33333L14.7916 3.40833ZM17.7083 9.16667L16.3416 10.2083L16.8333 11.8583L15.4166 10.8833L13.9999 11.8583L14.4916 10.2083L13.1249 9.16667L14.8416 9.125L15.4166 7.5L15.9916 9.125L17.7083 9.16667ZM15.8083 13.2917C16.4999 13.225 17.2416 14.2083 16.7999 14.8333C16.5333 15.2083 16.2499 15.5583 15.8999 15.8917C12.6416 19.1667 7.3666 19.1667 4.1166 15.8917C0.858268 12.6417 0.858268 7.35833 4.1166 4.10833C4.44994 3.775 4.79993 3.475 5.17493 3.20833C5.79993 2.76667 6.78327 3.50833 6.7166 4.2C6.4916 6.58333 7.2916 9.05833 9.12494 10.8833C10.9499 12.7167 13.4166 13.5167 15.8083 13.2917ZM14.4416 14.975C12.0833 14.8417 9.74994 13.8667 7.9416 12.0833C6.13327 10.2583 5.1666 7.91667 5.03327 5.56667C2.6916 8.18333 2.78327 12.2 5.2916 14.7167C7.80827 17.225 11.8249 17.3167 14.4416 14.975Z" fill="white"/>
</svg>
